#!OML:ASF H:\Dans Jumps\Project 1\Capture day 1\Session 1\subject.ASF
:FULLY-SPECIFIED
:DEGREES
527
root 0.381586 17.7335 -2.63719 6.42451 -0.573906 -1.25679
lowerback -0.909313 -0.0601989 -0.00499071
upperback 4.07437 -0.133582 1.29692
thorax 4.71416 -0.0945294 1.33563
lowerneck -11.722 0.349912 -2.07956
upperneck 36.4314 0.59739 1.34912
head 14.4715 0.151002 1.01643
rclavicle -1.59028e-015 5.96354e-015
rhumerus -21.9485 -14.1903 -82.9937
rradius 23.918
rwrist 32.4492
rhand -18.6861 -25.999
rfingers 7.12502
rthumb 7.60813 -55.8422
lclavicle -1.59028e-015 5.96354e-015
lhumerus -19.5803 -0.826839 88.6042
lradius 18.0257
lwrist 3.73508
lhand -25.941 -4.27949
lfingers 7.12502
lthumb 0.602713 25.6994
rfemur -15.9671 -0.646878 18.7351
rtibia 23.2056
rfoot -12.3569 0.592895
rtoes 14.25
lfemur -14.3508 6.57817 -17.4787
ltibia 20.3221
lfoot -9.07548 5.54658
ltoes 2.62193
528
root 0.382482 17.7334 -2.637 6.42049 -0.579156 -1.25858
lowerback -0.912144 -0.0593143 -0.00346275
upperback 4.07608 -0.132571 1.29876
thorax 4.71753 -0.094026 1.33674
lowerneck -11.7164 0.347895 -2.08382
upperneck 36.431 0.592489 1.35689
head 14.4701 0.149345 1.01958
rclavicle -1.73937e-015 -1.98785e-015
rhumerus -21.9532 -14.2198 -82.9843
rradius 23.9061
rwrist 32.4558
rhand -18.675 -25.9927
rfingers 7.12502
rthumb 7.61888 -55.8355
lclavicle -1.73937e-015 -1.98785e-015
lhumerus -19.5966 -0.811061 88.5999
lradius 18.0305
lwrist 3.73078
lhand -25.9372 -4.25624
lfingers 7.12502
lthumb 0.606365 25.7226
rfemur -15.9644 -0.649194 18.7341
rtibia 23.2084
rfoot -12.3608 0.597421
rtoes 14.2324
lfemur -14.3472 6.58127 -17.4795
ltibia 20.3258
lfoot -9.07775 5.54898
ltoes 2.62522
529
root 0.383357 17.7332 -2.63672 6.41565 -0.58597 -1.25904
lowerback -0.914741 -0.0584706 -0.00400571
upperback 4.07849 -0.131536 1.30022
thorax 4.72151 -0.0935866 1.33862
lowerneck -11.7157 0.346066 -2.08806
upperneck 36.4331 0.587771 1.36517
head 14.471 0.147809 1.02303
rclavicle 1.04362e-015 -1.0138e-014
rhumerus -21.955 -14.2516 -82.976
rradius 23.8934
rwrist 32.4702
rhand -18.6708 -25.9927
rfingers 7.12502
rthumb 7.62294 -55.8353
lclavicle 1.04362e-015 -1.0138e-014
lhumerus -19.6119 -0.798963 88.5959
lradius 18.0367
lwrist 3.7307
lhand -25.9352 -4.24123
lfingers 7.12502
lthumb 0.608342 25.7376
rfemur -15.9617 -0.650176 18.7316
rtibia 23.2136
rfoot -12.3659 0.601764
rtoes 14.2144
lfemur -14.3411 6.58535 -17.4816
ltibia 20.3281
lfoot -9.07985 5.55173
ltoes 2.63122
530
root 0.384246 17.733 -2.63634 6.40948 -0.595017 -1.25468
lowerback -0.918977 -0.0572802 -0.00878057
upperback 4.08275 -0.129842 1.29958
thorax 4.72836 -0.0929523 1.34075
lowerneck -11.7166 0.344705 -2.08986
upperneck 36.4359 0.58393 1.37121
head 14.4725 0.146675 1.02528
rclavicle 3.27995e-015 -7.15625e-015
rhumerus -21.9542 -14.2913 -82.9676
rradius 23.8818
rwrist 32.4987
rhand -18.678 -25.9915
rfingers 7.12502
rthumb 7.616 -55.8343
lclavicle 3.27995e-015 -7.15625e-015
lhumerus -19.6245 -0.788181 88.5906
lradius 18.044
lwrist 3.73075
lhand -25.9286 -4.22224
lfingers 7.12502
lthumb 0.614731 25.7566
rfemur -15.9588 -0.650963 18.7238
rtibia 23.2217
rfoot -12.3724 0.605444
rtoes 14.1897
lfemur -14.3315 6.59119 -17.4893
ltibia 20.3288
lfoot -9.08245 5.55551
ltoes 2.62692
531
root 0.385118 17.7327 -2.63607 6.40411 -0.606922 -1.24882
lowerback -0.923064 -0.055868 -0.0159775
upperback 4.08681 -0.127765 1.29895
thorax 4.73489 -0.0922206 1.34425
lowerneck -11.7199 0.343332 -2.09337
upperneck 36.4407 0.580487 1.37752
head 14.4755 0.145487 1.02806
rclavicle 5.96354e-016 9.54166e-015
rhumerus -21.9517 -14.3317 -82.9585
rradius 23.8703
rwrist 32.5348
rhand -18.7 -25.9915
rfingers 7.12502
rthumb 7.59471 -55.8351
lclavicle 5.96354e-016 9.54166e-015
lhumerus -19.6338 -0.777162 88.5852
lradius 18.0489
lwrist 3.73147
lhand -25.9264 -4.22585
lfingers 7.12502
lthumb 0.616826 25.753
rfemur -15.9589 -0.648895 18.7143
rtibia 23.2325
rfoot -12.379 0.608475
rtoes 14.1621
lfemur -14.3221 6.59835 -17.4989
ltibia 20.3284
lfoot -9.08351 5.56028
ltoes 2.6236
532
root 0.385965 17.7324 -2.63587 6.39809 -0.61977 -1.24167
lowerback -0.92502 -0.0550555 -0.0246215
upperback 4.08997 -0.126398 1.29791
thorax 4.73931 -0.0918794 1.34812
lowerneck -11.7228 0.342827 -2.09366
upperneck 36.446 0.579279 1.37872
head 14.4787 0.144998 1.0285
rclavicle -2.38542e-015 3.37934e-015
rhumerus -21.9537 -14.3678 -82.9499
rradius 23.8649
rwrist 32.5747
rhand -18.7259 -25.9882
rfingers 7.12502
rthumb 7.56969 -55.8327
lclavicle -2.38542e-015 3.37934e-015
lhumerus -19.6423 -0.763861 88.5781
lradius 18.0523
lwrist 3.72863
lhand -25.925 -4.24257
lfingers 7.12502
lthumb 0.618152 25.7363
rfemur -15.9595 -0.644991 18.7035
rtibia 23.2451
rfoot -12.3859 0.610101
rtoes 14.1378
lfemur -14.312 6.60619 -17.5098
ltibia 20.3278
lfoot -9.08439 5.56521
ltoes 2.61396
533
root 0.386778 17.7322 -2.63575 6.39184 -0.631768 -1.23544
lowerback -0.925436 -0.0544021 -0.0315702
upperback 4.09213 -0.125263 1.29653
thorax 4.74178 -0.0915711 1.35065
lowerneck -11.7241 0.341075 -2.09421
upperneck 36.452 0.576147 1.38016
head 14.4819 0.143672 1.02878
rclavicle 5.36719e-015 -1.59028e-015
rhumerus -21.9588 -14.3983 -82.9438
rradius 23.8642
rwrist 32.6054
rhand -18.7534 -25.9876
rfingers 7.12502
rthumb 7.54315 -55.8331
lclavicle 5.36719e-015 -1.59028e-015
lhumerus -19.6481 -0.75108 88.5694
lradius 18.0508
lwrist 3.72137
lhand -25.9244 -4.27088
lfingers 7.12502
lthumb 0.618805 25.708
rfemur -15.96 -0.638847 18.6937
rtibia 23.2576
rfoot -12.3927 0.608452
rtoes 14.1193
lfemur -14.3025 6.61391 -17.5195
ltibia 20.3283
lfoot -9.08659 5.56986
ltoes 2.60156
534
root 0.387604 17.7319 -2.63564 6.38543 -0.642484 -1.23124
lowerback -0.924961 -0.0538013 -0.0346874
upperback 4.09345 -0.1243 1.2948
thorax 4.74287 -0.0911857 1.35066
lowerneck -11.724 0.340349 -2.0916
upperneck 36.4583 0.574708 1.37873
head 14.4849 0.143122 1.02758
rclavicle -1.3418e-015 1.96797e-014
rhumerus -21.9675 -14.4234 -82.94
rradius 23.8679
rwrist 32.6264
rhand -18.7645 -25.9886
rfingers 7.12502
rthumb 7.53251 -55.8344
lclavicle -1.3418e-015 1.96797e-014
lhumerus -19.654 -0.740368 88.5595
lradius 18.0492
lwrist 3.71247
lhand -25.9286 -4.31133
lfingers 7.12502
lthumb 0.614733 25.6675
rfemur -15.9599 -0.632078 18.6859
rtibia 23.2694
rfoot -12.3983 0.60604
rtoes 14.1057
lfemur -14.2937 6.62072 -17.5269
ltibia 20.3298
lfoot -9.08954 5.57435
ltoes 2.58968
535
root 0.388458 17.7316 -2.63557 6.37912 -0.651323 -1.23035
lowerback -0.924362 -0.0529573 -0.0315474
upperback 4.09459 -0.123189 1.29224
thorax 4.74368 -0.0904661 1.34632
lowerneck -11.7231 0.338397 -2.09021
upperneck 36.4637 0.57011 1.38184
head 14.4873 0.141668 1.02796
rclavicle -3.42904e-015 -1.82882e-014
rhumerus -21.9766 -14.4464 -82.9399
rradius 23.8715
rwrist 32.6384
rhand -18.7628 -25.9866
rfingers 7.12502
rthumb 7.53415 -55.8325
lclavicle -3.42904e-015 -1.82882e-014
lhumerus -19.6558 -0.743899 88.5494
lradius 18.0422
lwrist 3.7119
lhand -25.9422 -4.3633
lfingers 7.12502
lthumb 0.601565 25.6156
rfemur -15.9596 -0.625303 18.6818
rtibia 23.2798
rfoot -12.4029 0.601867
rtoes 14.0924
lfemur -14.286 6.62679 -17.5306
ltibia 20.3322
lfoot -9.09286 5.5782
ltoes 2.57972
536
root 0.389395 17.7314 -2.6354 6.3723 -0.657451 -1.22848
lowerback -0.925477 -0.0533223 -0.0281431
upperback 4.09594 -0.123716 1.2897
thorax 4.74571 -0.0905552 1.34176
lowerneck -11.7177 0.337295 -2.08915
upperneck 36.4669 0.567166 1.38385
head 14.4876 0.140749 1.02814
rclavicle -1.98785e-016 8.54774e-015
rhumerus -21.9843 -14.4668 -82.9407
rradius 23.8742
rwrist 32.6483
rhand -18.7611 -25.9837
rfingers 7.12502
rthumb 7.53579 -55.8294
lclavicle -1.98785e-016 8.54774e-015
lhumerus -19.6561 -0.748682 88.5396
lradius 18.0334
lwrist 3.71221
lhand -25.9593 -4.41093
lfingers 7.12502
lthumb 0.585043 25.568
rfemur -15.9576 -0.62237 18.6765
rtibia 23.2892
rfoot -12.4073 0.598677
rtoes 14.0725
lfemur -14.278 6.63094 -17.5357
ltibia 20.3349
lfoot -9.09603 5.58136
ltoes 2.56647
537
root 0.3904 17.7311 -2.63522 6.36588 -0.66265 -1.22574
lowerback -0.927466 -0.0544345 -0.0246154
upperback 4.09743 -0.125251 1.28708
thorax 4.74842 -0.0911412 1.337
lowerneck -11.713 0.336211 -2.08882
upperneck 36.47 0.564382 1.38605
head 14.4881 0.13982 1.02856
rclavicle -2.28602e-015 -4.37326e-015
rhumerus -21.9883 -14.4824 -82.9435
rradius 23.8747
rwrist 32.6546
rhand -18.7574 -25.9877
rfingers 7.12502
rthumb 7.53934 -55.8334
lclavicle -2.28602e-015 -4.37326e-015
lhumerus -19.6528 -0.753241 88.5296
lradius 18.0205
lwrist 3.71324
lhand -25.9759 -4.45627
lfingers 7.12502
lthumb 0.569005 25.5227
rfemur -15.9554 -0.622127 18.67
rtibia 23.2975
rfoot -12.4109 0.597088
rtoes 14.0441
lfemur -14.2709 6.63302 -17.542
ltibia 20.3381
lfoot -9.09835 5.58631
ltoes 2.55329
538
root 0.391435 17.7309 -2.63499 6.35915 -0.667315 -1.22066
lowerback -0.930604 -0.0557308 -0.0231173
upperback 4.099 -0.126956 1.28411
thorax 4.75187 -0.091885 1.33301
lowerneck -11.7058 0.335044 -2.08916
upperneck 36.4726 0.561775 1.38779
head 14.4877 0.138822 1.02891
rclavicle 1.49089e-015 -1.0138e-014
rhumerus -21.9892 -14.5032 -82.945
rradius 23.869
rwrist 32.6663
rhand -18.7552 -25.9908
rfingers 7.12502
rthumb 7.54141 -55.8364
lclavicle 1.49089e-015 -1.0138e-014
lhumerus -19.6471 -0.753989 88.5194
lradius 18.004
lwrist 3.70972
lhand -25.9917 -4.49008
lfingers 7.12502
lthumb 0.553763 25.4889
rfemur -15.9534 -0.623679 18.661
rtibia 23.3073
rfoot -12.4148 0.596581
rtoes 14.0098
lfemur -14.2618 6.6349 -17.5511
ltibia 20.3375
lfoot -9.09781 5.59118
ltoes 2.53375
539
root 0.392553 17.7306 -2.63469 6.35205 -0.670214 -1.21879
lowerback -0.934773 -0.0585138 -0.0180535
upperback 4.10113 -0.130868 1.28315
thorax 4.75655 -0.0936376 1.329
lowerneck -11.7 0.334332 -2.09268
upperneck 36.4759 0.560675 1.3897
head 14.4879 0.138043 1.03014
rclavicle 1.39149e-015 2.5842e-015
rhumerus -21.9852 -14.5231 -82.9462
rradius 23.8582
rwrist 32.6788
rhand -18.7536 -25.9906
rfingers 7.12502
rthumb 7.54302 -55.8361
lclavicle 1.39149e-015 2.5842e-015
lhumerus -19.6384 -0.742268 88.5086
lradius 17.9857
lwrist 3.69991
lhand -26.005 -4.5229
lfingers 7.12502
lthumb 0.540903 25.4562
rfemur -15.951 -0.627761 18.6553
rtibia 23.3185
rfoot -12.4202 0.596929
rtoes 13.9678
lfemur -14.2557 6.63588 -17.5569
ltibia 20.3437
lfoot -9.09975 5.59675
ltoes 2.50827
